# xmcd
#
# Track frame offsets: 
#        150
#        10015
#        28442
#        56587
#        73731
#        93465
#        118839
#        138648
#        149368
#        166066
#        178648
#        204546
#        221010
#        235700
#        255796
#        275918
#        290159
#
# Disc length: 4119 seconds
#
# Revision: 1
# Processed by: cddbd v1.5.2PL0 Copyright (c) Steve Scherf et al.
# Submitted via: ExactAudioCopy v0.99pb4
#
DISCID=0a101511
DTITLE=The Norman Sylvester Band - A Family Affair
DYEAR=2003
DGENRE=Blues
TTITLE0=All The Funk You Want
TTITLE1=Take Me Along For The Ride
TTITLE2=Redemption Time
TTITLE3=Ooh La La (The Mardi Gras)
TTITLE4=Family Affair
TTITLE5=Party Goin' On
TTITLE6=Honey Do List
TTITLE7=Boogie In The Key Of A
TTITLE8=Cheating Woman
TTITLE9=It Ain't My Thing
TTITLE10=Soap Oper
TTITLE11=Peace Of Mind
TTITLE12=Soul Diva
TTITLE13=Look On The Brightside
TTITLE14=Criminal Groove
TTITLE15=Too Happy To Sing The Blues
TTITLE16=Mother's Prayer
EXTD=
EXTT0=
EXTT1=
EXTT2=
EXTT3=
EXTT4=
EXTT5=
EXTT6=
EXTT7=
EXTT8=
EXTT9=
EXTT10=
EXTT11=
EXTT12=
EXTT13=
EXTT14=
EXTT15=
EXTT16=
PLAYORDER=
